<?xml version="1.0" encoding="iso-8859-1"?>
<!-- Generator: Adobe Illustrator 19.0.0, SVG Export Plug-In . SVG Version: 6.00 Build 0)  -->
<svg version="1.1" id="Layer_1" xmlns="http://www.w3.org/2000/svg" xmlns:xlink="http://www.w3.org/1999/xlink" x="0px" y="0px"
	 viewBox="0 0 309.268 309.268" style="enable-background:new 0 0 309.268 309.268;" xml:space="preserve">
<g>
	<path style="fill:#F4B459;" d="M57.988,106.312H251.28l57.988,57.988H0L57.988,106.312z"/>
	<path style="fill:#D07C40;" d="M67.652,125.641h173.963l48.323,48.323c0,0-3.866,48.323-10.631,48.323H28.027
		c-5.799,0-8.698-48.323-8.698-48.323L67.652,125.641z"/>
	<path style="fill:#F4B459;" d="M212.621,164.299v19.329c0,10.631-8.698,19.329-19.329,19.329h-77.317
		c-10.631,0-19.329-8.698-19.329-19.329v-19.329H0v115.975c0,10.631,8.698,19.329,19.329,19.329h270.609
		c10.631,0,19.329-8.698,19.329-19.329V164.299H212.621z"/>
	<path style="fill:#475F6C;" d="M210.688,77.318h-27.061V19.33c0-5.799-3.866-9.665-9.665-9.665h-38.658
		c-5.799,0-9.665,3.866-9.665,9.665v57.988h-27.06c-10.631,0-14.497,6.765-9.665,15.463l56.055,55.088
		c4.832,8.698,13.53,8.698,19.329,0l56.055-55.088C225.185,84.083,221.319,77.318,210.688,77.318z"/>
</g>
</svg>
