<?xml version="1.0" encoding="iso-8859-1"?>
<!-- Generator: Adobe Illustrator 19.0.0, SVG Export Plug-In . SVG Version: 6.00 Build 0)  -->
<svg version="1.1" id="Layer_1" xmlns="http://www.w3.org/2000/svg" xmlns:xlink="http://www.w3.org/1999/xlink" x="0px" y="0px"
	 viewBox="0 0 309.537 309.537" style="enable-background:new 0 0 309.537 309.537;" xml:space="preserve">
<g>
	<path style="fill:#3DB39E;" d="M270.744,0.271V0c0,0-156.827,0.193-212.573,0.251c-10.931,0-19.378,8.215-19.378,19.378v289.899
		h212.621c10.67,0,19.329-8.659,19.329-19.329V19.59h19.329V0.261C290.073,0.261,270.744,0.271,270.744,0.271z"/>
	<path style="fill:#2F8A78;" d="M232.086,290.208c0-10.67,8.659-19.329,19.329-19.329H19.464c-10.67,0-19.329,8.659-19.329,19.329
		s8.659,19.329,19.329,19.329h231.95C240.745,309.538,232.086,300.878,232.086,290.208z"/>
	<path style="fill:#2F8A78;" d="M290.073,0.271c-10.67,0-19.329,8.659-19.329,19.329v19.329h19.329
		c10.67,0,19.329-8.659,19.329-19.329C309.402,8.92,300.743,0.271,290.073,0.271z"/>
	<path style="fill:#8BD1C5;" d="M77.452,87.445v125.64h154.634V87.445H77.452z M193.427,97.11v19.329h-19.329V97.11H193.427z
		 M135.44,145.433h-19.33v-19.329h19.329v19.329H135.44z M145.104,126.104h19.329v19.329h-19.329V126.104z M135.44,155.097v19.329
		h-19.33v-19.329H135.44z M145.104,155.097h19.329v19.329h-19.329V155.097z M174.098,155.097h19.329v19.329h-19.329V155.097z
		 M174.098,145.433v-19.329h19.329v19.329H174.098z M164.433,97.11v19.329h-19.329V97.11H164.433z M135.44,97.11v19.329h-19.33
		V97.11H135.44z M87.117,97.11h19.329v19.329H87.117V97.11z M87.117,126.104h19.329v19.329H87.117V126.104z M87.117,155.097h19.329
		v19.329H87.117V155.097z M87.117,203.42v-19.329h19.329v19.329H87.117z M116.11,203.42v-19.329h19.329v19.329H116.11z
		 M145.104,203.42v-19.329h19.329v19.329H145.104z M174.098,203.42v-19.329h19.329v19.329H174.098z M222.421,203.42h-19.329v-19.329
		h19.329V203.42z M222.421,174.427h-19.329v-19.329h19.329V174.427z M222.421,145.433h-19.329v-19.329h19.329V145.433z
		 M222.421,116.439h-19.329V97.11h19.329V116.439z"/>
</g>
<g>
</g>
<g>
</g>
<g>
</g>
<g>
</g>
<g>
</g>
<g>
</g>
<g>
</g>
<g>
</g>
<g>
</g>
<g>
</g>
<g>
</g>
<g>
</g>
<g>
</g>
<g>
</g>
<g>
</g>
</svg>
